<!-- icon666.com - MILLIONS OF FREE VECTOR ICONS --><svg fill="none" viewBox="0 0 24 24" xmlns="http://www.w3.org/2000/svg"><g fill="rgb(0,0,0)"><path d="m10 12c0 1.1046.8954 2 2 2s2-.8954 2-2-.8954-2-2-2-2 .8954-2 2z" fill="rgb(0,0,0)" style="fill: rgb(255, 255, 255);"></path><path d="m10 6c0 1.10457.8954 2 2 2s2-.89543 2-2-.8954-2-2-2-2 .89543-2 2z" fill="rgb(0,0,0)" style="fill: rgb(255, 255, 255);"></path><path d="m10 18c0 1.1046.8954 2 2 2s2-.8954 2-2-.8954-2-2-2-2 .8954-2 2z" fill="rgb(0,0,0)" style="fill: rgb(255, 255, 255);"></path></g></svg>